<?xml version="1.0" encoding="utf-8"?>
<!-- Generator: Adobe Illustrator 22.1.0, SVG Export Plug-In . SVG Version: 6.00 Build 0)  -->
<svg version="1.1" id="Layer_1" xmlns="http://www.w3.org/2000/svg" xmlns:xlink="http://www.w3.org/1999/xlink" x="0px" y="0px"
	 viewBox="0 0 561 561" style="enable-background:new 0 0 561 561;" xml:space="preserve">
<style type="text/css">
	.st0{fill:#D7EFF1;}
	.st1{fill:#04526F;}
	.st2{fill:#B3E1EA;}
	.st3{fill:#51C5DB;}
	.st4{fill:#358199;}
	.st5{fill:#D7EFF1;stroke:#04526F;stroke-width:4;stroke-linejoin:round;stroke-miterlimit:10;}
	.st6{fill:#B3E1EA;stroke:#04526F;stroke-width:4;stroke-linejoin:round;stroke-miterlimit:10;}
	.st7{fill:#51C5DB;stroke:#04526F;stroke-width:4;stroke-linejoin:round;stroke-miterlimit:10;}
	.st8{fill:none;stroke:#04526F;stroke-width:4;stroke-linejoin:round;stroke-miterlimit:10;}
	.st9{fill:#D7EFF1;stroke:#04526F;stroke-width:4;stroke-linecap:round;stroke-linejoin:round;stroke-miterlimit:10;}
	.st10{fill:none;stroke:#04526F;stroke-width:4;stroke-linecap:round;stroke-linejoin:round;stroke-miterlimit:10;}
</style>
<g>
	<polyline class="st0" points="321.1,210.1 242.6,347.2 210.3,330.8 275.1,186.7 	"/>
	<path class="st1" d="M242.6,351.1c-0.6,0-1.2-0.1-1.8-0.4l-32.2-16.4c-1.8-0.9-2.6-3.1-1.8-5l64.8-144.1l7,3.2L215.4,329l25.7,13.1
		l76.7-133.9l6.7,3.8l-78.5,137.1C245.2,350.4,243.9,351.1,242.6,351.1z"/>
</g>
<g>
	<polyline class="st2" points="330.5,191.7 321.1,210.1 275.1,186.7 284.5,168.2 	"/>
	<path class="st1" d="M321.1,214c-0.6,0-1.2-0.1-1.8-0.4l-46-23.5c-0.9-0.5-1.6-1.3-1.9-2.2c-0.3-1-0.2-2,0.2-2.9l9.4-18.4l6.9,3.5
		l-7.6,15l39.1,19.9l7.6-15l6.9,3.5l-9.4,18.4C323.9,213.2,322.5,214,321.1,214z"/>
</g>
<g>
	<circle class="st3" cx="285.9" cy="222.5" r="9.7"/>
	<path class="st1" d="M285.8,236c-2.1,0-4.2-0.5-6.1-1.5c-3.2-1.6-5.6-4.4-6.7-7.9c-1.1-3.4-0.8-7.1,0.8-10.3
		c1.6-3.2,4.4-5.6,7.9-6.7s7.1-0.8,10.3,0.8c6.6,3.4,9.3,11.5,5.9,18.2c0,0,0,0,0,0c-1.6,3.2-4.4,5.6-7.9,6.7
		C288.7,235.8,287.2,236,285.8,236z M285.9,216.7c-0.6,0-1.2,0.1-1.8,0.3c-1.5,0.5-2.7,1.5-3.4,2.9c-0.7,1.4-0.8,2.9-0.3,4.4
		c0.5,1.5,1.5,2.7,2.9,3.4c1.4,0.7,2.9,0.8,4.4,0.3c1.5-0.5,2.7-1.5,3.4-2.9c1.4-2.8,0.3-6.3-2.5-7.8
		C287.7,216.9,286.8,216.7,285.9,216.7z"/>
</g>
<g>
	
		<rect x="234.5" y="296.9" transform="matrix(0.4541 -0.8909 0.8909 0.4541 -151.1092 384.6592)" class="st1" width="7.7" height="37.5"/>
</g>
<g>
	<circle class="st4" cx="323.7" cy="148.2" r="43.7"/>
</g>
<g>
	<path class="st4" d="M285.8,126.3c-0.1,0.8-0.4,1.6-0.7,2.4c-3,7.2-3.9,13.7-4.5,21.3c-0.5,5.9,1.2,10.1,3.7,15.5
		c5.1,11.1,16.9,22.4,28.3,27.1c12.2,5,30.7-1.4,39.5-10.7c4.7-5,8-10.6,11.7-15.9L285.8,126.3z"/>
</g>
<g>
	<path class="st1" d="M323.6,195.8c-7.3,0-14.6-1.7-21.5-5.2c-11.3-5.8-19.7-15.6-23.7-27.7c-3.9-12.1-2.9-25,2.9-36.3
		c11.9-23.4,40.6-32.7,64-20.8c11.3,5.8,19.7,15.6,23.7,27.7c3.9,12.1,2.9,25-2.9,36.3l0,0C357.7,186.3,341,195.8,323.6,195.8z
		 M323.8,108.3c-14.5,0-28.6,8-35.6,21.8c-4.8,9.5-5.7,20.3-2.4,30.4c3.3,10.1,10.3,18.4,19.8,23.2c19.6,10,43.7,2.2,53.6-17.4l0,0
		c4.8-9.5,5.7-20.3,2.4-30.4c-3.3-10.1-10.3-18.4-19.8-23.2C336,109.7,329.9,108.3,323.8,108.3z"/>
</g>
<g>
	
		<rect x="319.8" y="104.5" transform="matrix(0.4542 -0.8909 0.8909 0.4542 44.6351 369.2954)" class="st1" width="7.7" height="87.5"/>
</g>
<g>
	
		<rect x="259.8" y="243.3" transform="matrix(0.8909 0.4541 -0.4541 0.8909 147.5248 -92.4688)" class="st0" width="13" height="35.2"/>
	<path class="st1" d="M264.1,283.4c-0.6,0-1.2-0.1-1.8-0.4l-11.6-5.9c-1.9-1-2.7-3.3-1.7-5.2l16-31.4c0.5-0.9,1.3-1.6,2.2-1.9
		c1-0.3,2-0.2,2.9,0.2l11.6,5.9c1.9,1,2.7,3.3,1.7,5.2l-16,31.4c-0.5,0.9-1.3,1.6-2.2,1.9C264.9,283.3,264.5,283.4,264.1,283.4z
		 M257.7,271.9l4.7,2.4l12.5-24.5l-4.7-2.4L257.7,271.9z"/>
</g>
<g>
	<path class="st1" d="M222.4,437.5c-4,0-7.8-0.6-11.4-1.9c-11.7-4.1-19.2-14.4-20.4-28.3c-1.6-17.1,12.1-39,26.5-62.3
		c1.7-2.8,3.5-5.7,5.2-8.5c1.1-1.8,3.5-2.4,5.3-1.3c1.8,1.1,2.4,3.5,1.3,5.3c-1.7,2.9-3.5,5.7-5.3,8.5
		c-13.7,22.1-26.7,43.1-25.3,57.5c1,10.8,6.6,18.7,15.3,21.8c13.6,4.8,32.1-2.6,48.3-19.4c30.8-31.8,59.3-46.8,84.8-44.4
		c13.5,1.2,22.3,5,31.1,13.4c1.5,1.5,1.6,3.9,0.1,5.5c-1.5,1.5-3.9,1.6-5.5,0.1c-6.4-6.1-13.1-10.1-26.5-11.3
		c-23.1-2.1-49.5,12-78.6,42.1C252.8,429.4,236.7,437.5,222.4,437.5z"/>
</g>
</svg>
