<?xml version="1.0" encoding="utf-8"?>
<!-- Generator: Adobe Illustrator 21.1.0, SVG Export Plug-In . SVG Version: 6.00 Build 0)  -->
<svg version="1.1" id="Layer_1" xmlns="http://www.w3.org/2000/svg" xmlns:xlink="http://www.w3.org/1999/xlink" x="0px" y="0px"
	 viewBox="0 0 144 152.7" style="enable-background:new 0 0 144 152.7;" xml:space="preserve">
<style type="text/css">
	.st0{fill:#338199;stroke:#04526F;stroke-width:4;stroke-linecap:round;stroke-linejoin:round;stroke-miterlimit:10;}
	.st1{fill:none;stroke:#04526F;stroke-width:4;stroke-linecap:round;stroke-linejoin:round;stroke-miterlimit:10;}
	.st2{fill:#50C6DB;}
	.st3{fill:#B3E1EA;}
</style>
<g>
	<path class="st0" d="M42.5,79.7c1.2-2.6,1.2-6.1-1.5-7.7c-2.4-1.4-6.2,0.3-7.9,2.3c-1.7-1.9-5.4-3.7-7.9-2.3
		c-2.8,1.6-2.7,5.2-1.5,7.7c0.1,0.2,0.1,0.3,0.3,0.6s0.3,0.5,0.2,0.4c2,3.3,4.6,5.7,7.8,7.9c0.4,0.3,0.8,0.5,1.1,0.5
		s0.7-0.3,1.1-0.5c3.2-2.1,5.8-4.6,7.8-7.9c0.1-0.2,0.1-0.2,0.3-0.5C42.5,79.9,42.5,79.7,42.5,79.7z"/>
	<path class="st0" d="M116.5,119H52.8l-31.4,30.4L21,119h-9.7c-3.6,0-6.5-2.9-6.5-6.5v-66c0-3.6,2.9-6.5,6.5-6.5h105.2
		c3.6,0,6.5,2.9,6.5,6.5v65.9C123,116,120.1,119,116.5,119z"/>
	<path class="st0" d="M73.3,79.7c1.2-2.6,1.2-6.1-1.5-7.7c-2.4-1.4-6.2,0.3-7.9,2.3c-1.7-1.9-5.4-3.7-7.9-2.3
		c-2.8,1.6-2.7,5.2-1.5,7.7c0.1,0.2,0.1,0.3,0.3,0.6s0.3,0.5,0.2,0.4c2,3.3,4.6,5.7,7.8,7.9c0.4,0.3,0.8,0.5,1.1,0.5
		c0.3,0,0.7-0.3,1.1-0.5c3.2-2.1,5.8-4.6,7.8-7.9c0.1-0.2,0.1-0.2,0.3-0.5C73.3,79.9,73.3,79.7,73.3,79.7z"/>
	<path class="st0" d="M104.1,79.7c1.2-2.6,1.2-6.1-1.5-7.7c-2.4-1.4-6.2,0.3-7.9,2.3c-1.7-1.9-5.4-3.7-7.9-2.3
		c-2.8,1.6-2.7,5.2-1.5,7.7c0.1,0.2,0.1,0.3,0.3,0.6c0.2,0.3,0.3,0.5,0.2,0.4c2,3.3,4.6,5.7,7.8,7.9c0.4,0.3,0.8,0.5,1.1,0.5
		c0.3,0,0.7-0.3,1.1-0.5c3.2-2.1,5.8-4.6,7.8-7.9c0.1-0.2,0.1-0.2,0.3-0.5C104.1,79.9,104.1,79.7,104.1,79.7z"/>
	<path class="st0" d="M104.1,79.7c1.2-2.6,1.2-6.1-1.5-7.7c-2.4-1.4-6.2,0.3-7.9,2.3c-1.7-1.9-5.4-3.7-7.9-2.3
		c-2.8,1.6-2.7,5.2-1.5,7.7c0.1,0.2,0.1,0.3,0.3,0.6c0.2,0.3,0.3,0.5,0.2,0.4c2,3.3,4.6,5.7,7.8,7.9c0.4,0.3,0.8,0.5,1.1,0.5
		c0.3,0,0.7-0.3,1.1-0.5c3.2-2.1,5.8-4.6,7.8-7.9c0.1-0.2,0.1-0.2,0.3-0.5C104.1,79.9,104.1,79.7,104.1,79.7z"/>
</g>
<g>
	<path class="st1" d="M42.5,79.7c1.2-2.6,1.2-6.1-1.5-7.7c-2.4-1.4-6.2,0.3-7.9,2.3c-1.7-1.9-5.4-3.7-7.9-2.3
		c-2.8,1.6-2.7,5.2-1.5,7.7c0.1,0.2,0.1,0.3,0.3,0.6s0.3,0.5,0.2,0.4c2,3.3,4.6,5.7,7.8,7.9c0.4,0.3,0.8,0.5,1.1,0.5
		s0.7-0.3,1.1-0.5c3.2-2.1,5.8-4.6,7.8-7.9c0.1-0.2,0.1-0.2,0.3-0.5C42.5,79.9,42.5,79.7,42.5,79.7z"/>
	<path class="st1" d="M116.5,119H52.8l-31.4,30.4L21,119h-9.7c-3.6,0-6.5-2.9-6.5-6.5v-66c0-3.6,2.9-6.5,6.5-6.5h105.2
		c3.6,0,6.5,2.9,6.5,6.5v65.9C123,116,120.1,119,116.5,119z"/>
	<path class="st1" d="M73.3,79.7c1.2-2.6,1.2-6.1-1.5-7.7c-2.4-1.4-6.2,0.3-7.9,2.3c-1.7-1.9-5.4-3.7-7.9-2.3
		c-2.8,1.6-2.7,5.2-1.5,7.7c0.1,0.2,0.1,0.3,0.3,0.6s0.3,0.5,0.2,0.4c2,3.3,4.6,5.7,7.8,7.9c0.4,0.3,0.8,0.5,1.1,0.5
		c0.3,0,0.7-0.3,1.1-0.5c3.2-2.1,5.8-4.6,7.8-7.9c0.1-0.2,0.1-0.2,0.3-0.5C73.3,79.9,73.3,79.7,73.3,79.7z"/>
	<path class="st1" d="M104.1,79.7c1.2-2.6,1.2-6.1-1.5-7.7c-2.4-1.4-6.2,0.3-7.9,2.3c-1.7-1.9-5.4-3.7-7.9-2.3
		c-2.8,1.6-2.7,5.2-1.5,7.7c0.1,0.2,0.1,0.3,0.3,0.6c0.2,0.3,0.3,0.5,0.2,0.4c2,3.3,4.6,5.7,7.8,7.9c0.4,0.3,0.8,0.5,1.1,0.5
		c0.3,0,0.7-0.3,1.1-0.5c3.2-2.1,5.8-4.6,7.8-7.9c0.1-0.2,0.1-0.2,0.3-0.5C104.1,79.9,104.1,79.7,104.1,79.7z"/>
	<path class="st1" d="M104.1,79.7c1.2-2.6,1.2-6.1-1.5-7.7c-2.4-1.4-6.2,0.3-7.9,2.3c-1.7-1.9-5.4-3.7-7.9-2.3
		c-2.8,1.6-2.7,5.2-1.5,7.7c0.1,0.2,0.1,0.3,0.3,0.6c0.2,0.3,0.3,0.5,0.2,0.4c2,3.3,4.6,5.7,7.8,7.9c0.4,0.3,0.8,0.5,1.1,0.5
		c0.3,0,0.7-0.3,1.1-0.5c3.2-2.1,5.8-4.6,7.8-7.9c0.1-0.2,0.1-0.2,0.3-0.5C104.1,79.9,104.1,79.7,104.1,79.7z"/>
</g>
<g>
	<path class="st2" d="M74,63.5C74,63.6,74,63.5,74,63.5c0,0.1,0,0.2,0.1,0.3c0.1,0.2,0.1,0.2,0.2,0.3l0.1,0.1
		c1.7,2.9,3.9,5.1,7.1,7.2c3.1-2.1,5.4-4.3,7.1-7.2c0-0.1,0.1-0.2,0.1-0.2c0-0.1,0.1-0.1,0.1-0.2c0.1-0.2,0.1-0.2,0.2-0.4
		c0.7-1.5,1.1-4.1-0.7-5.1c-1.4-0.8-4.1,0.3-5.4,1.8c-0.4,0.4-0.9,0.7-1.5,0.7s-1.1-0.3-1.5-0.7c-1.3-1.4-4-2.6-5.4-1.8
		C72.7,59.3,73.1,61.9,74,63.5z"/>
	<path class="st2" d="M104.8,63.5C104.8,63.6,104.8,63.5,104.8,63.5c0,0.1,0,0.2,0.1,0.3c0.1,0.2,0.1,0.2,0.2,0.3l0.1,0.1
		c1.7,2.9,3.9,5.1,7.1,7.2c3.1-2.1,5.4-4.3,7.1-7.2c0-0.1,0.1-0.2,0.1-0.2c0-0.1,0.1-0.1,0.1-0.2c0.1-0.2,0.1-0.2,0.2-0.4
		c0.7-1.5,1.1-4.1-0.7-5.1c-1.4-0.8-4.1,0.3-5.4,1.8c-0.7,0.9-2.2,0.9-3,0c-1.3-1.4-4-2.6-5.4-1.8C103.5,59.3,103.9,61.9,104.8,63.5
		z"/>
	<path class="st2" d="M43.1,63.5C43.1,63.6,43.1,63.5,43.1,63.5c0,0.1,0,0.2,0.1,0.3c0.1,0.2,0.1,0.2,0.2,0.3l0.1,0.1
		c1.7,2.9,3.9,5.1,7.1,7.2c3.1-2.1,5.4-4.3,7.1-7.2c0-0.1,0.1-0.1,0.1-0.2c0-0.1,0.1-0.1,0.1-0.2c0.1-0.2,0.1-0.2,0.2-0.4
		c0.7-1.5,1.1-4.1-0.7-5.1c-1.3-0.8-4,0.3-5.3,1.8c-0.4,0.4-0.9,0.7-1.5,0.7s-1.1-0.3-1.5-0.7c-1.3-1.4-4-2.6-5.4-1.8
		C41.9,59.3,42.3,61.9,43.1,63.5z"/>
	<path class="st3" d="M24.3,31v65.8c0,2.5,2,4.5,4.5,4.5h63.7c0.5,0,1,0.2,1.4,0.6l28.1,27.2l0.3-25.7c0-1.1,0.9-2,2-2h9.7
		c2.5,0,4.5-2,4.5-4.5V31c0-2.5-2-4.5-4.5-4.5H28.8C26.3,26.5,24.3,28.5,24.3,31z M103.4,54.7c2.8-1.6,6.4-0.5,8.8,1.3
		c2.4-1.7,6-2.9,8.8-1.3c3.7,2.1,4,6.8,2.4,10.3c-0.1,0.3-0.1,0.4-0.3,0.7c-0.1,0.2-0.2,0.4-0.3,0.5l0,0c-2.1,3.4-4.7,6.1-8.4,8.5
		c-0.8,0.5-1.4,0.7-1.9,0.8c-0.1,0-0.2,0-0.3,0s-0.2,0-0.3,0c-0.5,0-1.1-0.3-1.9-0.8c-3.7-2.5-6.4-5.1-8.4-8.5
		c-0.2-0.2-0.2-0.2-0.4-0.6c-0.1-0.2-0.2-0.4-0.3-0.6C99.3,61.5,99.6,56.9,103.4,54.7z M72.6,54.7c2.8-1.6,6.4-0.5,8.8,1.3
		c2.4-1.7,6-2.9,8.8-1.3c3.7,2.1,4,6.8,2.4,10.3c-0.1,0.3-0.1,0.4-0.3,0.7c-0.1,0.2-0.2,0.4-0.3,0.5l0,0c-2.1,3.4-4.7,6.1-8.4,8.5
		c-0.8,0.5-1.4,0.7-1.9,0.8c-0.1,0-0.2,0-0.3,0s-0.2,0-0.3,0c-0.5,0-1.1-0.3-1.9-0.8c-3.7-2.5-6.4-5.1-8.4-8.5
		c-0.2-0.2-0.2-0.2-0.4-0.6c-0.1-0.2-0.2-0.4-0.3-0.6C68.5,61.5,68.8,56.9,72.6,54.7z M41.8,54.7c2.8-1.6,6.4-0.5,8.8,1.3
		c2.4-1.7,6-2.9,8.8-1.3c3.7,2.1,4,6.8,2.4,10.3c-0.1,0.3-0.1,0.4-0.3,0.7c-0.1,0.2-0.2,0.4-0.3,0.5l0,0c-2.1,3.4-4.7,6.1-8.4,8.5
		c-0.8,0.5-1.4,0.7-1.9,0.8c-0.1,0-0.2,0-0.3,0s-0.2,0-0.3,0c-0.5,0-1.1-0.3-1.9-0.8c-3.7-2.4-6.4-5.1-8.4-8.5
		c-0.2-0.2-0.2-0.3-0.4-0.6c-0.1-0.2-0.2-0.4-0.3-0.6C37.7,61.5,38,56.9,41.8,54.7z"/>
</g>
<g>
	<path class="st1" d="M103,64.7c0.2,0.3,0.2,0.3,0.3,0.5c2,3.3,4.6,5.8,7.8,7.9c0.4,0.2,0.8,0.5,1.1,0.5c0.3,0,0.7-0.2,1.1-0.5
		c3.2-2.2,5.8-4.6,7.8-7.9c-0.1,0.1,0-0.1,0.2-0.4c0.2-0.3,0.2-0.4,0.3-0.6c1.2-2.5,1.3-6.1-1.5-7.7c-2.5-1.4-6.2,0.4-7.9,2.3
		c-1.7-2-5.5-3.7-7.9-2.3c-2.7,1.6-2.7,5.1-1.5,7.7C102.8,64.2,102.8,64.4,103,64.7z"/>
	<path class="st1" d="M22.3,96.9V31c0-3.6,2.9-6.5,6.5-6.5H134c3.6,0,6.5,2.9,6.5,6.5v66c0,3.6-2.9,6.5-6.5,6.5h-9.7l-0.4,30.4
		l-31.4-30.4H28.8C25.2,103.5,22.3,100.5,22.3,96.9z"/>
	<path class="st1" d="M72.2,64.7c0.2,0.3,0.2,0.3,0.3,0.5c2,3.3,4.6,5.8,7.8,7.9c0.4,0.2,0.8,0.5,1.1,0.5c0.3,0,0.7-0.2,1.1-0.5
		c3.2-2.2,5.8-4.6,7.8-7.9c-0.1,0.1,0-0.1,0.2-0.4c0.2-0.3,0.2-0.4,0.3-0.6c1.2-2.5,1.3-6.1-1.5-7.7c-2.5-1.4-6.2,0.4-7.9,2.3
		c-1.7-2-5.5-3.7-7.9-2.3c-2.7,1.6-2.7,5.1-1.5,7.7C72,64.2,72,64.4,72.2,64.7z"/>
	<path class="st1" d="M41.4,64.7c0.2,0.3,0.2,0.3,0.3,0.5c2,3.3,4.6,5.8,7.8,7.9c0.4,0.2,0.8,0.5,1.1,0.5c0.3,0,0.7-0.2,1.1-0.5
		c3.2-2.2,5.8-4.6,7.8-7.9c-0.1,0.1,0-0.1,0.2-0.4c0.2-0.3,0.2-0.4,0.3-0.6c1.2-2.5,1.3-6.1-1.5-7.7c-2.5-1.4-6.2,0.4-7.9,2.3
		c-1.7-2-5.5-3.7-7.9-2.3c-2.7,1.6-2.7,5.1-1.5,7.7C41.2,64.2,41.2,64.4,41.4,64.7z"/>
	<path class="st1" d="M41.4,64.7c0.2,0.3,0.2,0.3,0.3,0.5c2,3.3,4.6,5.8,7.8,7.9c0.4,0.2,0.8,0.5,1.1,0.5c0.3,0,0.7-0.2,1.1-0.5
		c3.2-2.2,5.8-4.6,7.8-7.9c-0.1,0.1,0-0.1,0.2-0.4c0.2-0.3,0.2-0.4,0.3-0.6c1.2-2.5,1.3-6.1-1.5-7.7c-2.5-1.4-6.2,0.4-7.9,2.3
		c-1.7-2-5.5-3.7-7.9-2.3c-2.7,1.6-2.7,5.1-1.5,7.7C41.2,64.2,41.2,64.4,41.4,64.7z"/>
</g>
</svg>
